<svg width="167" height="50" viewBox="0 0 167 50" fill="none" xmlns="http://www.w3.org/2000/svg">
<path d="M136.827 39.2202H138.803C140.111 39.2202 141.419 39.2202 142.727 39.2202C143.679 39.2202 144.653 38.9548 145.072 40.4334C145.236 41.0173 146.074 41.495 146.7 41.7907C149.522 43.1481 152.414 43.2087 155.314 42.0561C157.432 41.222 158.427 39.5387 158.463 37.1653C158.47 36.5056 158.463 35.8534 158.463 35.1558C157.319 35.861 156.281 36.5965 155.179 37.1728C150.239 39.751 144.169 38.932 140.203 35.0952C137.289 32.2744 136.017 28.6043 135.782 24.4944C135.647 22.1514 135.768 19.8083 136.579 17.5941C138.498 12.3544 142.25 9.51088 147.354 8.76018C151.291 8.17631 155.051 8.89667 158.42 11.6265V9.68528H166.409C166.423 10.0113 166.445 10.3071 166.445 10.6028C166.445 19.2775 166.459 27.9522 166.438 36.6269C166.438 38.7576 166.146 40.8581 165.3 42.822C164.611 44.4371 163.637 45.8248 162.187 46.6968C156.387 50.1697 150.282 51.0948 143.999 48.5546C140.282 47.0532 137.68 44.2097 136.863 39.8496C136.827 39.6752 136.834 39.4932 136.813 39.2126L136.827 39.2202ZM158.641 23.1144C158.626 18.504 155.684 15.6453 150.971 15.6529C146.764 15.6605 143.843 18.7239 143.835 23.1295C143.828 27.8536 146.92 31.3341 151.107 31.3038C155.385 31.2734 158.662 27.7171 158.648 23.1144H158.641Z" fill="black"/>
<path d="M114.634 8.57379C122.756 8.57379 129.084 14.4024 129.891 22.5024C130.27 26.2595 129.863 29.8666 128.063 33.2166C124.991 38.9309 120.17 41.6024 113.684 41.3809C105.356 41.0952 100.706 34.8024 99.5628 28.7381C98.4485 22.8309 99.5842 17.4309 103.777 12.9095C106.398 10.0809 109.72 8.76665 113.527 8.58093C113.898 8.55951 114.27 8.58093 114.641 8.58093L114.634 8.57379ZM121.898 25.0452C121.877 22.4881 121.32 20.2166 119.763 18.2881C117.263 15.2024 112.156 15.0595 109.627 18.0024C106.463 21.6881 106.456 28.2095 109.613 31.8881C112.113 34.8024 116.841 34.8809 119.406 32.0309C121.22 30.0166 121.856 27.5667 121.898 25.0524V25.0452Z" fill="black"/>
<path d="M27.6286 17.8057H20.4214C19.7214 15.5557 17.9571 14.6272 15.8857 14.2415C14.0357 13.8986 12.1857 14.1343 10.4357 14.9057C9.53571 15.3057 8.82143 15.8772 8.8 16.9915C8.77857 18.1057 9.42143 18.82 10.35 19.1272C12.1571 19.7272 14 20.2415 15.85 20.6557C18.3 21.2057 20.8429 21.4986 23.0429 22.77C24.4786 23.5986 25.8571 24.6415 27 25.8343C29.0786 28.0129 29.3286 31.3772 27.6857 34.2057C25.3643 38.1915 21.7714 40.4129 17.2571 41.0343C13.6429 41.5343 10.05 41.2986 6.75714 39.5343C5.65 38.9415 4.6 38.1057 3.78571 37.1486C2.20714 35.3057 0.878571 33.2629 0.228571 30.8629C0.121429 30.4629 0.0785714 30.0343 0 29.5557H7.50714C9.47143 34.2343 15.3857 35.7843 19.4429 32.6629C21.0429 31.4343 20.9929 30.0272 19.2643 28.9843C17.2286 27.7486 14.9 27.3772 12.6286 26.82C10.3643 26.2629 8.05 25.7772 5.90714 24.8915C-0.2 22.3629 -0.521429 15.6772 3.47857 11.52C6.89286 7.97717 11.0571 6.8486 15.7857 7.20574C20 7.52003 23.4571 9.27003 25.9929 12.7057C27.2071 14.3486 27.7429 16.0486 27.6286 17.8057Z" fill="black"/>
<path d="M79.2962 41.3143H71.6177V0H79.2962V41.3143Z" fill="black"/>
<path d="M93.4463 41.2643H85.7249V0H93.4463V41.2643Z" fill="black"/>
<path d="M41.8256 19.2856H60.1891L57.1509 33.2142L47.9557 37.8571L38.7605 28.5714L41.8256 19.2856Z" fill="#FBB03B"/>
<path d="M57.9843 10.2143H57.4843V10.7143V25.7625C57.4843 28.8172 56.8084 31.197 55.508 32.9513C54.2693 34.5989 52.3256 35.1592 49.456 35.1592C46.6151 35.1592 44.6674 34.6004 43.4026 32.9494C42.1031 31.1954 41.4277 28.8161 41.4277 25.7625V10.7143V10.2143H40.9277H34.4749H33.9749V10.7143V26.6348C33.9749 29.6102 34.5673 32.26 35.7669 34.571L35.7669 34.571L35.769 34.5749C36.9963 36.889 38.7622 38.7028 41.0577 40.0094L41.0577 40.0094L41.0634 40.0126C43.3927 41.2982 46.1973 41.9286 49.456 41.9286C52.7388 41.9286 55.5448 41.2986 57.8506 40.0114L57.8522 40.0106C60.1731 38.7043 61.9409 36.8899 63.144 34.5731C64.3694 32.2617 64.9749 29.6111 64.9749 26.6348V10.7143V10.2143H64.4749H57.9843Z" fill="black" stroke="black"/>
</svg>
