<svg width="98" height="16" viewBox="0 0 98 16" fill="none" xmlns="http://www.w3.org/2000/svg">
<path d="M6.9457 3.264C6.3297 3.95467 5.5317 4.51 4.5517 4.93C3.58103 5.34067 2.62436 5.56 1.6817 5.588V5.028C2.47503 5 3.2777 4.82733 4.0897 4.51C4.91103 4.18333 5.62036 3.74 6.2177 3.18C6.82436 2.61067 7.2117 1.97133 7.3797 1.262L7.9537 1.374C7.85103 1.86867 7.63636 2.34933 7.3097 2.816L12.4477 5.154L12.2237 5.63L6.9457 3.264ZM7.3657 7.268V8.794H12.0697V11.23H2.6757V12.658H12.3357V13.19H2.0877V10.712H11.4817V9.326H2.0597V8.794H6.7777V7.268H1.1637V6.736H12.9797V7.268H7.3657ZM22.6385 1.584C24.1225 1.584 25.3452 1.752 26.3065 2.088C27.2678 2.424 27.7485 2.95133 27.7485 3.67C27.7485 4.38867 27.2678 4.916 26.3065 5.252C25.3452 5.588 24.1225 5.756 22.6385 5.756C21.1545 5.756 19.9318 5.588 18.9705 5.252C18.0092 4.916 17.5285 4.38867 17.5285 3.67C17.5285 2.95133 18.0092 2.424 18.9705 2.088C19.9318 1.752 21.1545 1.584 22.6385 1.584ZM22.6385 2.116C21.3505 2.116 20.2772 2.242 19.4185 2.494C18.5598 2.746 18.1305 3.138 18.1305 3.67C18.1305 4.202 18.5598 4.594 19.4185 4.846C20.2772 5.098 21.3505 5.224 22.6385 5.224C23.9265 5.224 24.9998 5.098 25.8585 4.846C26.7172 4.594 27.1465 4.202 27.1465 3.67C27.1465 3.138 26.7172 2.746 25.8585 2.494C24.9998 2.242 23.9265 2.116 22.6385 2.116ZM28.5465 7.366H16.7305V6.834H28.5465V7.366ZM27.6365 11.23H18.2425V12.658H27.9025V13.19H17.6545V10.712H27.0485V9.326H17.6265V8.794H27.6365V11.23ZM49.1711 13.456H48.5831V1.5H49.1711V13.456ZM45.3911 4.65C45.3911 6.22733 45.1345 7.61333 44.6211 8.808C44.1078 10.0027 43.3658 10.9267 42.3951 11.58C41.4338 12.2333 40.2951 12.56 38.9791 12.56V12C40.1551 12 41.1818 11.706 42.0591 11.118C42.9365 10.5207 43.6131 9.67133 44.0891 8.57C44.5651 7.46867 44.8031 6.18067 44.8031 4.706V2.606H38.9791V2.06H45.3911V4.65ZM65.7039 8.374V8.906H53.8879V8.374H59.5019V6.764H54.8819V3.992H64.1919V2.298H54.8819V1.766H64.7659V4.51H55.4559V6.232H64.9619V6.764H60.0899V8.374H65.7039ZM54.6999 10.418H64.7659V13.358H64.1779V10.964H54.6999V10.418ZM73.9067 3.698H77.4907V4.244H69.7487V3.698H73.3187V1.472H73.9067V3.698ZM81.8587 7.282H79.9687V13.456H79.3807V1.5H79.9687V6.736H81.8587V7.282ZM73.6127 5.56C74.2007 5.56 74.7374 5.70933 75.2227 6.008C75.7174 6.29733 76.1047 6.71733 76.3847 7.268C76.674 7.80933 76.8187 8.43933 76.8187 9.158C76.8187 9.87667 76.674 10.5113 76.3847 11.062C76.1047 11.6033 75.7174 12.0187 75.2227 12.308C74.7374 12.6067 74.2007 12.756 73.6127 12.756C73.0247 12.756 72.4834 12.6067 71.9887 12.308C71.5034 12.0187 71.116 11.6033 70.8267 11.062C70.5467 10.5113 70.4067 9.87667 70.4067 9.158C70.4067 8.43933 70.5467 7.80933 70.8267 7.268C71.116 6.71733 71.5034 6.29733 71.9887 6.008C72.4834 5.70933 73.0247 5.56 73.6127 5.56ZM73.6127 12.21C74.0794 12.21 74.5087 12.084 74.9007 11.832C75.302 11.58 75.6194 11.2253 75.8527 10.768C76.0954 10.3013 76.2167 9.76467 76.2167 9.158C76.2167 8.55133 76.0954 8.01933 75.8527 7.562C75.6194 7.09533 75.302 6.736 74.9007 6.484C74.5087 6.232 74.0794 6.106 73.6127 6.106C73.146 6.106 72.712 6.232 72.3107 6.484C71.9187 6.736 71.6014 7.09533 71.3587 7.562C71.1254 8.01933 71.0087 8.55133 71.0087 9.158C71.0087 9.76467 71.1254 10.3013 71.3587 10.768C71.6014 11.2253 71.9187 11.58 72.3107 11.832C72.712 12.084 73.146 12.21 73.6127 12.21ZM97.4255 7.282H95.5355V13.456H94.9475V1.5H95.5355V6.736H97.4255V7.282ZM90.4255 12.07C90.9855 12.07 91.5455 12.014 92.1055 11.902C92.6748 11.79 93.1462 11.6453 93.5195 11.468V12.042C93.1555 12.2193 92.6935 12.3593 92.1335 12.462C91.5735 12.5647 91.0042 12.616 90.4255 12.616H85.7215V2.06H92.5815V2.606H86.3095V12.07H90.4255Z" fill="#A5A5A5"/>
</svg>
