<svg width="128" height="13" viewBox="0 0 128 13" fill="none" xmlns="http://www.w3.org/2000/svg">
<path d="M10.4709 3.566V0.499999H11.0589V9.418H10.4709V4.098H7.5729V3.566H10.4709ZM4.2269 4.406C3.87223 5.28333 3.36356 5.988 2.7009 6.52C2.04756 7.052 1.26823 7.39733 0.362897 7.556V6.996C1.52956 6.78133 2.4489 6.20267 3.1209 5.26C3.7929 4.308 4.14756 3.05267 4.1849 1.494H0.502897V0.947999H8.1469V1.494H4.7729C4.7449 2.38067 4.62823 3.16467 4.4229 3.846L8.3709 6.996L8.0349 7.458L4.2269 4.406ZM11.3949 11.63V12.176H1.3149V8.69H1.9029V11.63H11.3949ZM27.4797 6.94V7.472H15.6637V6.94H21.2777V5.428H16.6577V0.766H26.6397V1.284H17.2457V2.838H26.4437V3.342H17.2457V4.91H26.7377V5.428H21.8657V6.94H27.4797ZM21.5717 8.69C23.009 8.69 24.213 8.83933 25.1837 9.138C26.1544 9.43667 26.6397 9.90333 26.6397 10.538C26.6397 11.1727 26.1544 11.6393 25.1837 11.938C24.213 12.2367 23.009 12.386 21.5717 12.386C20.1344 12.386 18.9304 12.2367 17.9597 11.938C16.989 11.6393 16.5037 11.1727 16.5037 10.538C16.5037 9.90333 16.989 9.43667 17.9597 9.138C18.9304 8.83933 20.1344 8.69 21.5717 8.69ZM21.5717 11.854C22.7664 11.854 23.8117 11.742 24.7077 11.518C25.6037 11.3033 26.0517 10.9767 26.0517 10.538C26.0517 10.0993 25.6037 9.77267 24.7077 9.558C23.8117 9.334 22.7664 9.222 21.5717 9.222C20.377 9.222 19.3317 9.334 18.4357 9.558C17.5397 9.77267 17.0917 10.0993 17.0917 10.538C17.0917 10.9767 17.5397 11.3033 18.4357 11.518C19.3317 11.742 20.377 11.854 21.5717 11.854ZM36.7465 3.776C36.2238 4.57867 35.5098 5.22733 34.6045 5.722C33.7085 6.21667 32.7052 6.52933 31.5945 6.66V6.1C32.5465 5.988 33.4052 5.73133 34.1705 5.33C34.9452 4.92867 35.5752 4.40133 36.0605 3.748C36.5552 3.09467 36.8632 2.34333 36.9845 1.494H31.9445V0.947999H42.3325V1.494H37.5725C37.4885 2.138 37.3065 2.73533 37.0265 3.286L42.6265 6.072L42.3185 6.576L36.7465 3.776ZM43.0465 8.844H37.4045V12.736H36.8165V8.844H31.2305V8.298H43.0465V8.844ZM57.6753 3.118H48.3653V4.476H57.8713V4.994H47.7913V2.6H57.1013V1.284H47.7913V0.766H57.6753V3.118ZM58.6133 6.8H46.7973V6.268H58.6133V6.8ZM57.7033 10.356H48.2953V11.672H57.9693V12.19H47.7213V9.852H57.1293V8.592H47.6933V8.074H57.7033V10.356ZM79.2379 12.456H78.6499V0.499999H79.2379V12.456ZM75.4579 3.65C75.4579 5.22733 75.2012 6.61333 74.6879 7.808C74.1746 9.00267 73.4326 9.92667 72.4619 10.58C71.5006 11.2333 70.3619 11.56 69.0459 11.56V11C70.2219 11 71.2486 10.706 72.1259 10.118C73.0032 9.52067 73.6799 8.67133 74.1559 7.57C74.6319 6.46867 74.8699 5.18067 74.8699 3.706V1.606H69.0459V1.06H75.4579V3.65ZM95.7707 7.374V7.906H83.9547V7.374H89.5687V5.764H84.9487V2.992H94.2587V1.298H84.9487V0.766H94.8327V3.51H85.5227V5.232H95.0287V5.764H90.1567V7.374H95.7707ZM84.7667 9.418H94.8327V12.358H94.2447V9.964H84.7667V9.418ZM103.974 2.698H107.558V3.244H99.8155V2.698H103.386V0.472H103.974V2.698ZM111.926 6.282H110.036V12.456H109.448V0.499999H110.036V5.736H111.926V6.282ZM103.68 4.56C104.268 4.56 104.804 4.70933 105.29 5.008C105.784 5.29733 106.172 5.71733 106.452 6.268C106.741 6.80933 106.886 7.43933 106.886 8.158C106.886 8.87667 106.741 9.51133 106.452 10.062C106.172 10.6033 105.784 11.0187 105.29 11.308C104.804 11.6067 104.268 11.756 103.68 11.756C103.092 11.756 102.55 11.6067 102.056 11.308C101.57 11.0187 101.183 10.6033 100.894 10.062C100.614 9.51133 100.474 8.87667 100.474 8.158C100.474 7.43933 100.614 6.80933 100.894 6.268C101.183 5.71733 101.57 5.29733 102.056 5.008C102.55 4.70933 103.092 4.56 103.68 4.56ZM103.68 11.21C104.146 11.21 104.576 11.084 104.968 10.832C105.369 10.58 105.686 10.2253 105.92 9.768C106.162 9.30133 106.284 8.76467 106.284 8.158C106.284 7.55133 106.162 7.01933 105.92 6.562C105.686 6.09533 105.369 5.736 104.968 5.484C104.576 5.232 104.146 5.106 103.68 5.106C103.213 5.106 102.779 5.232 102.378 5.484C101.986 5.736 101.668 6.09533 101.426 6.562C101.192 7.01933 101.076 7.55133 101.076 8.158C101.076 8.76467 101.192 9.30133 101.426 9.768C101.668 10.2253 101.986 10.58 102.378 10.832C102.779 11.084 103.213 11.21 103.68 11.21ZM127.492 6.282H125.602V12.456H125.014V0.499999H125.602V5.736H127.492V6.282ZM120.492 11.07C121.052 11.07 121.612 11.014 122.172 10.902C122.742 10.79 123.213 10.6453 123.586 10.468V11.042C123.222 11.2193 122.76 11.3593 122.2 11.462C121.64 11.5647 121.071 11.616 120.492 11.616H115.788V1.06H122.648V1.606H116.376V11.07H120.492Z" fill="#A5A5A5"/>
</svg>
