<svg width="50" height="50" viewBox="0 0 50 50" fill="none" xmlns="http://www.w3.org/2000/svg">
<circle cx="25" cy="25" r="24.5" fill="white" stroke="#8574B5"/>
<path d="M21.9817 35.825V36.428H23.6017V39.515H24.3487V33.602H23.6017V35.825H21.9817ZM22.4587 37.724C21.2887 37.31 20.4967 36.302 20.4967 35.249V34.853H22.2697V34.25H17.9587V34.853H19.7587V35.258C19.7587 36.401 18.9217 37.472 17.7247 37.904L18.1117 38.48C19.0567 38.138 19.7947 37.391 20.1457 36.473C20.4967 37.301 21.1897 37.976 22.0897 38.3L22.4587 37.724ZM19.9297 40.883V38.993H19.1827V41.486H24.5737V40.883H19.9297ZM28.326 35.69H29.82V35.078H28.335V33.881H27.624V35.078H26.13V35.69H27.624V36.077C27.624 37.4 27.003 38.813 25.914 39.461L26.346 40.01C27.138 39.533 27.705 38.633 27.984 37.607C28.281 38.579 28.857 39.398 29.64 39.839L30.063 39.281C28.974 38.696 28.326 37.364 28.326 36.077V35.69ZM30.504 36.779H29.271V37.391H30.504V41.243H31.206V33.782H30.504V36.779ZM32.124 33.593V41.657H32.835V33.593H32.124Z" fill="#3A3A3A"/>
<path d="M20.7954 26.156C21.5994 26.156 22.3314 25.736 22.9554 25.22H22.9914L23.0874 26H23.9874V21.992C23.9874 20.384 23.3154 19.316 21.7314 19.316C20.6874 19.316 19.7634 19.784 19.1634 20.168L19.5954 20.924C20.1114 20.576 20.7954 20.228 21.5514 20.228C22.6194 20.228 22.8954 21.032 22.8954 21.872C20.1234 22.184 18.8874 22.892 18.8874 24.308C18.8874 25.484 19.7034 26.156 20.7954 26.156ZM21.1074 25.28C20.4594 25.28 19.9554 24.98 19.9554 24.236C19.9554 23.396 20.6994 22.856 22.8954 22.592V24.416C22.2594 24.98 21.7434 25.28 21.1074 25.28ZM27.2208 26.156C27.5088 26.156 27.7008 26.12 27.8568 26.06L27.7008 25.22C27.5808 25.244 27.5328 25.244 27.4728 25.244C27.3048 25.244 27.1608 25.112 27.1608 24.776V16.448H26.0688V24.704C26.0688 25.628 26.4048 26.156 27.2208 26.156ZM30.6427 26.156C30.9307 26.156 31.1227 26.12 31.2787 26.06L31.1227 25.22C31.0027 25.244 30.9547 25.244 30.8947 25.244C30.7267 25.244 30.5827 25.112 30.5827 24.776V16.448H29.4907V24.704C29.4907 25.628 29.8267 26.156 30.6427 26.156Z" fill="#3A3A3A"/>
</svg>
