<svg width="50" height="50" viewBox="0 0 50 50" fill="none" xmlns="http://www.w3.org/2000/svg">
<circle cx="25" cy="25" r="24.5" fill="white" stroke="#8574B5"/>
<path d="M18.1747 34.466V35.06H21.2077C21.0547 36.977 19.9747 38.525 17.8057 39.56L18.2017 40.163C20.8837 38.849 21.9547 36.797 21.9547 34.466H18.1747ZM23.5837 33.593V41.666H24.3217V33.593H23.5837ZM27.066 37.184H29.91V36.59H27.066V34.925H30.09V34.322H26.328V39.722H26.958C28.479 39.722 29.523 39.668 30.765 39.452L30.693 38.858C29.505 39.056 28.497 39.119 27.066 39.119V37.184ZM33.519 36.833H32.187V33.593H31.449V41.657H32.187V37.454H33.519V36.833Z" fill="#3A3A3A"/>
<circle cx="17" cy="22" r="2.25" fill="white" stroke="#3A3A3A" stroke-width="0.5"/>
<circle cx="25" cy="22" r="2.25" fill="white" stroke="#3A3A3A" stroke-width="0.5"/>
<circle cx="33" cy="22" r="2.25" fill="white" stroke="#3A3A3A" stroke-width="0.5"/>
</svg>
