<svg width="50" height="50" viewBox="0 0 50 50" fill="none" xmlns="http://www.w3.org/2000/svg">
<circle cx="25" cy="25" r="24.5" fill="white" stroke="#8574B5"/>
<path d="M16.8791 37.175H14.6111V34.781H16.8791V37.175ZM17.5991 34.196H13.8911V37.769H17.5991V34.196ZM14.5751 39.407H19.0841V41.675H19.8221V38.804H14.5751V39.407ZM21.0191 35.69H19.8221V33.602H19.0841V38.381H19.8221V36.302H21.0191V35.69ZM27.7414 37.733H28.4884V33.593H27.7414V35.537H25.9864V36.131H27.7414V37.733ZM22.3864 33.989V34.583H25.1404C25.0144 35.87 23.8804 36.842 21.9544 37.31L22.2244 37.895C24.5374 37.319 25.9324 35.996 25.9324 33.989H22.3864ZM24.0334 41V40.064H28.4884V38.084H23.2864V38.669H27.7504V39.506H23.3044V41.585H28.7584V41H24.0334ZM31.3226 37.229H34.3016V34.34H30.5576V34.943H33.5546V36.626H30.5846V39.722H31.2506C32.6366 39.722 33.8606 39.668 35.3186 39.425L35.2466 38.822C33.8336 39.047 32.6456 39.11 31.3226 39.11V37.229ZM36.0026 33.584V41.675H36.7406V33.584H36.0026Z" fill="#3A3A3A"/>
<path d="M24.999 13C19.3917 13 15 14.9918 15 17.5372C15.0178 18.2053 15.2921 18.8424 15.7682 19.3208C16.563 22.8553 18.3138 26.0104 19.496 26.9151C20.5187 27.7201 21.9598 28 24.9989 28C28.038 28 29.4792 27.7201 30.5018 26.9281C31.684 26.0124 33.4327 22.8578 34.2296 19.3206C34.7071 18.8419 34.9823 18.2041 35 17.5349C34.9978 14.994 30.6059 13 24.9987 13L24.999 13ZM24.999 27.566C21.9242 27.566 20.6626 27.2774 19.7704 26.5873C18.4068 25.5329 16.8661 22.0656 16.2285 19.3553C17.7694 20.8569 21.1207 21.9006 24.9993 21.9006C28.8779 21.9006 32.2288 20.8568 33.7677 19.3554C33.1301 22.0655 31.5894 25.5328 30.2258 26.5875C29.3359 27.2773 28.0742 27.566 24.9996 27.566L24.999 27.566ZM15.5534 17.5089C15.5534 16.7192 16.0516 15.9901 16.917 15.35C18.6105 14.2 21.5965 13.434 25.0012 13.434C28.4058 13.434 31.3899 14.1999 33.0834 15.3499C33.9467 15.979 34.447 16.719 34.447 17.5088C34.447 19.8109 30.2102 21.6857 25.0014 21.6857C19.7926 21.6857 15.5535 19.811 15.5535 17.5088L15.5534 17.5089Z" fill="black"/>
<path d="M24.9992 21.1544C29.9246 21.1544 33.9337 19.4034 33.9337 17.2488C33.9337 17.1888 33.8841 17.1404 33.8229 17.1404C33.7618 17.1404 33.7122 17.1888 33.7122 17.2488C33.7122 19.2819 29.803 20.9374 24.9995 20.9374C20.1961 20.9374 16.2869 19.2819 16.2869 17.2488C16.2869 17.1888 16.2373 17.1404 16.1761 17.1404C16.115 17.1404 16.0654 17.1888 16.0654 17.2488C16.0654 19.4034 20.0741 21.1544 24.9999 21.1544H24.9992Z" fill="black"/>
</svg>
