<svg width="50" height="50" viewBox="0 0 50 50" fill="none" xmlns="http://www.w3.org/2000/svg">
<circle cx="25" cy="25" r="24.5" fill="white" stroke="#8574B5"/>
<path d="M24.6637 37.535C23.2507 37.283 21.7117 36.095 21.7117 34.754V34.133H20.9377V34.754C20.9377 36.095 19.4077 37.283 17.9947 37.535L18.3007 38.147C19.5427 37.886 20.8027 37.049 21.3247 35.897C21.8467 37.049 23.1157 37.886 24.3487 38.147L24.6637 37.535ZM21.6937 40.01V38.048H20.9557V40.01H17.6977V40.613H25.0237V40.01H21.6937ZM26.697 37.517C27.948 37.301 29.136 36.626 29.631 35.672C30.117 36.626 31.314 37.301 32.565 37.517L32.853 36.932C31.431 36.725 30.036 35.798 30.036 34.736V34.691H32.565V34.097H26.67V34.691H29.217V34.736C29.217 35.798 27.822 36.725 26.418 36.932L26.697 37.517ZM33.276 38.192H25.986V38.795H29.244V41.666H29.982V38.795H33.285L33.276 38.192Z" fill="#3A3A3A"/>
<path d="M24.9952 10.002C23.1902 9.97893 21.3896 10.1719 19.6383 10.5763C17.8872 11.0271 17 11.6758 17 12.5064V12.5404L17.6093 22.5399H17.6095C17.6259 22.9006 17.7926 23.2413 18.0747 23.4912L18.3325 26.3816C18.3494 26.848 18.7644 27.237 20.6191 27.6015H20.6193C22.0593 27.8718 23.5254 28.0054 24.9951 27.9998C26.468 28.006 27.9377 27.8725 29.3809 27.6015C31.2389 27.237 31.6509 26.848 31.6675 26.3816L31.9253 23.4912H31.9255C32.2076 23.2413 32.3744 22.9005 32.3907 22.5399L33 12.5404V12.5064C33 11.6758 32.1128 11.0271 30.3617 10.5763H30.362C28.6074 10.1713 26.8033 9.97805 24.995 10.002H24.9952ZM21.1986 24.2941L21.2287 27.0733C19.866 26.8478 18.9923 26.5391 18.9923 26.3413L18.7446 23.5436C19.5162 23.9079 20.3438 24.1609 21.1986 24.2941H21.1986ZM21.5335 24.3496C21.7679 24.3867 22.0122 24.4207 22.2567 24.4485V27.2277C22.0157 27.2 21.7813 27.1692 21.5604 27.1381L21.5335 24.3496ZM22.5914 24.4856C24.1869 24.6471 25.7969 24.6471 27.3924 24.4856V27.2648C25.7967 27.4227 24.1872 27.4227 22.5914 27.2648V24.4856ZM28.4503 24.3496L28.4235 27.1289C28.2026 27.1629 27.9681 27.1907 27.7271 27.2185V24.4393C27.9782 24.4145 28.2194 24.3837 28.4536 24.3466L28.4503 24.3496ZM28.7617 27.0733L28.7918 24.2941C29.647 24.1651 30.4756 23.9163 31.2493 23.5561L31.0015 26.3539C30.998 26.5516 30.1243 26.8573 28.7616 27.0733H28.7617ZM31.7213 22.5122C31.7056 22.7306 31.5961 22.9342 31.4165 23.0774C30.526 23.7383 28.1724 24.2941 24.9949 24.2941C21.8175 24.2941 19.4641 23.7383 18.5734 23.0866C18.3926 22.9438 18.2817 22.7403 18.2653 22.5214L17.6558 12.5064C17.6558 11.4658 20.9403 10.6196 24.9945 10.6196C29.0487 10.6196 32.3332 11.4658 32.3332 12.5064L31.7213 22.5122Z" fill="black"/>
<path d="M32.0924 12.448C31.9977 12.448 31.921 12.52 31.921 12.6085C31.921 12.9493 29.6104 13.5728 25.1879 13.5728C20.7654 13.5728 18.4548 12.9301 18.4548 12.6085C18.4548 12.52 18.378 12.448 18.2833 12.448C18.1886 12.448 18.1118 12.52 18.1118 12.6085C18.1118 13.5728 22.3425 13.8941 25.1884 13.8941C28.0342 13.8941 32.2649 13.547 32.2649 12.6085C32.2649 12.5659 32.2468 12.5251 32.2147 12.4951C32.1824 12.4648 32.1389 12.448 32.0935 12.448L32.0924 12.448Z" fill="black"/>
</svg>
