<svg width="50" height="50" viewBox="0 0 50 50" fill="none" xmlns="http://www.w3.org/2000/svg">
<circle cx="25" cy="25" r="25" fill="#3E14B4"/>
<path d="M22.0537 35.627V36.59H23.3497V39.533H24.5377V33.485H23.3497V35.627H22.0537ZM22.6027 37.535C21.2977 37.094 20.7307 36.077 20.7307 35.096V34.988H22.3417V34.043H17.8867V34.988H19.5157V35.105C19.5157 36.149 18.9217 37.238 17.5627 37.679L18.1567 38.624C19.1287 38.3 19.7767 37.643 20.1457 36.824C20.4967 37.571 21.1177 38.165 22.0267 38.462L22.6027 37.535ZM20.2627 40.685V39.029H19.0747V41.63H24.7267V40.685H20.2627ZM28.461 35.825H29.73V34.871H28.461V33.755H27.336V34.871H26.04V35.825H27.336V35.996C27.336 37.274 26.913 38.633 25.734 39.326L26.4 40.217C27.147 39.785 27.633 39.047 27.912 38.183C28.209 38.975 28.686 39.632 29.415 40.019L30.054 39.137C28.884 38.516 28.461 37.247 28.461 35.996V35.825ZM30.198 36.617H29.253V37.58H30.198V41.396H31.305V33.62H30.198V36.617ZM31.872 33.476V41.765H32.997V33.476H31.872Z" fill="white"/>
<path d="M20.7954 26.156C21.5994 26.156 22.3314 25.736 22.9554 25.22H22.9914L23.0874 26H23.9874V21.992C23.9874 20.384 23.3154 19.316 21.7314 19.316C20.6874 19.316 19.7634 19.784 19.1634 20.168L19.5954 20.924C20.1114 20.576 20.7954 20.228 21.5514 20.228C22.6194 20.228 22.8954 21.032 22.8954 21.872C20.1234 22.184 18.8874 22.892 18.8874 24.308C18.8874 25.484 19.7034 26.156 20.7954 26.156ZM21.1074 25.28C20.4594 25.28 19.9554 24.98 19.9554 24.236C19.9554 23.396 20.6994 22.856 22.8954 22.592V24.416C22.2594 24.98 21.7434 25.28 21.1074 25.28ZM27.2208 26.156C27.5088 26.156 27.7008 26.12 27.8568 26.06L27.7008 25.22C27.5808 25.244 27.5328 25.244 27.4728 25.244C27.3048 25.244 27.1608 25.112 27.1608 24.776V16.448H26.0688V24.704C26.0688 25.628 26.4048 26.156 27.2208 26.156ZM30.6427 26.156C30.9307 26.156 31.1227 26.12 31.2787 26.06L31.1227 25.22C31.0027 25.244 30.9547 25.244 30.8947 25.244C30.7267 25.244 30.5827 25.112 30.5827 24.776V16.448H29.4907V24.704C29.4907 25.628 29.8267 26.156 30.6427 26.156Z" fill="white"/>
</svg>
