<svg width="50" height="50" viewBox="0 0 50 50" fill="none" xmlns="http://www.w3.org/2000/svg">
<circle cx="25" cy="25" r="25" fill="#3E14B4"/>
<path d="M18.0667 34.34V35.285H20.8297C20.6587 37.121 19.7407 38.417 17.6257 39.434L18.2467 40.37C21.1897 38.948 22.0447 36.878 22.0447 34.34H18.0667ZM23.3137 33.476V41.765H24.5107V33.476H23.3137ZM27.399 37.409H29.991V36.482H27.399V35.132H30.108V34.169H26.211V39.902H26.913C28.335 39.902 29.451 39.866 30.711 39.677L30.603 38.732C29.523 38.894 28.569 38.939 27.399 38.948V37.409ZM33.582 36.626H32.376V33.485H31.188V41.783H32.376V37.607H33.582V36.626Z" fill="white"/>
<circle cx="17" cy="22" r="2.25" stroke="white" stroke-width="0.5"/>
<circle cx="25" cy="22" r="2.25" stroke="white" stroke-width="0.5"/>
<circle cx="33" cy="22" r="2.25" stroke="white" stroke-width="0.5"/>
</svg>
