<svg width="50" height="50" viewBox="0 0 50 50" fill="none" xmlns="http://www.w3.org/2000/svg">
<circle cx="25" cy="25" r="25" fill="#3E14B4"/>
<path d="M17.8601 38.156C18.0851 36.788 18.0851 35.78 18.0851 34.979V34.304H13.8191V35.249H16.9151C16.9151 35.987 16.8881 36.878 16.6991 38.057L17.8601 38.156ZM16.0511 36.68H14.8811V39.128C14.3591 39.137 13.8551 39.137 13.3961 39.137L13.5041 40.109C14.9441 40.1 16.7981 40.064 18.4811 39.776L18.4181 38.921C17.6621 39.011 16.8521 39.065 16.0511 39.092V36.68ZM21.1001 36.815H19.9841V33.476H18.7961V41.765H19.9841V37.805H21.1001V36.815ZM28.6234 33.494H27.4354V37.67H28.6234V33.494ZM26.8324 36.644C25.4914 36.248 24.8974 35.285 24.8974 34.304V33.683H23.6914V34.304C23.6914 35.312 23.0884 36.356 21.7114 36.779L22.2874 37.706C23.2594 37.409 23.9344 36.779 24.3124 35.996C24.6814 36.716 25.3204 37.292 26.2654 37.571L26.8324 36.644ZM24.2944 40.793V40.28H28.6324V38.039H23.1064V38.948H27.4534V39.434H23.1154V41.711H28.8394V40.793H24.2944ZM30.8186 37.589C32.2676 37.391 33.2846 36.77 33.7796 35.924C34.2746 36.77 35.2916 37.391 36.7406 37.589L37.1636 36.662C35.4806 36.455 34.6076 35.645 34.4906 34.853H36.8396V33.908H30.6926V34.853H33.0776C32.9606 35.645 32.0786 36.455 30.3866 36.662L30.8186 37.589ZM37.5236 38.066H30.0356V39.011H33.1586V41.792H34.3466V39.011H37.5236V38.066Z" fill="white"/>
<path d="M27.782 10.0747C27.0458 10.0283 26.0601 10 25.0171 10C23.9741 10 22.9925 10.0262 22.2522 10.0747C21.3574 10.1334 20.8666 10.1797 20.7502 10.4931C20.3545 11.0407 18 14.446 18 17.932C18 22.0747 21.8226 22.861 22.5883 22.9841C23.5425 23.1276 23.775 23.4287 23.8577 23.643C24.0333 24.0471 24.0693 25.0878 23.6461 25.9002C23.2949 26.6015 21.1075 27.4563 20.2762 27.5169V27.5168C20.0567 27.5347 19.8882 27.7105 19.8891 27.9209V28.3433C19.8891 28.7474 20.3502 28.806 20.6253 28.8424C20.9003 28.8788 21.2197 28.901 21.6619 28.9253C22.5547 28.9738 23.7414 29 25.0001 29C26.2588 29 27.4455 28.9738 28.3383 28.9253C28.7804 28.901 29.1273 28.8727 29.3749 28.8424C29.6224 28.8121 30.1111 28.7495 30.1111 28.3433L30.1109 27.917C30.1118 27.7065 29.9433 27.5306 29.7239 27.5129C28.8778 27.4442 26.7052 26.5893 26.354 25.8962C25.9456 25.0879 25.9732 24.045 26.1423 23.6389C26.2332 23.4246 26.466 23.1235 27.4117 22.98C28.1775 22.8649 32 22.0807 32 17.9279C32 14.4419 29.6455 11.0368 29.2499 10.489C29.1609 10.1819 28.6764 10.1334 27.7816 10.0747L27.782 10.0747ZM25.7766 23.4809C25.565 23.9941 25.5291 25.1441 25.9882 26.0656C26.4113 26.9204 28.5267 27.7227 29.4957 27.8843C29.0323 27.9672 27.4394 28.0622 25.015 28.0622C22.5907 28.0622 20.9956 27.9672 20.5344 27.8843C21.5012 27.7185 23.6145 26.9163 24.0418 26.0656C24.5052 25.1441 24.4776 23.9943 24.2534 23.4809C24.0842 23.0767 23.6801 22.7311 22.6499 22.5755C21.6196 22.4198 18.4189 21.565 18.4189 17.9275C18.4189 14.29 21.1437 10.6525 21.1437 10.6525C21.15 10.5173 22.8805 10.4041 25.0173 10.4041C27.154 10.4041 28.8867 10.5173 28.8867 10.6567C28.8867 10.6567 31.6115 14.2942 31.6115 17.9317C31.6115 21.5693 28.4129 22.4202 27.3805 22.5797C26.3482 22.7393 25.944 23.0869 25.7769 23.4809L25.7766 23.4809ZM20.3315 28.3309V28.0421C20.4797 28.0986 20.835 28.1492 21.6981 28.1957C22.5612 28.2422 23.7649 28.2704 25.0195 28.2704C26.2739 28.2704 27.4522 28.2442 28.3409 28.1957C29.2294 28.1472 29.5594 28.0987 29.7075 28.0421V28.3391C29.7075 28.4785 27.6089 28.5897 25.0194 28.5897C22.4299 28.5897 20.3295 28.4785 20.3295 28.3411L20.3315 28.3309Z" fill="white"/>
<path d="M28.6495 10.8739C28.6572 10.8154 28.6159 10.7619 28.5574 10.7543C28.4991 10.7467 28.4456 10.7878 28.4379 10.8463C28.2813 10.9752 27.029 11.1488 25.0129 11.1488C22.9969 11.1488 21.7572 10.9775 21.5923 10.8463C21.5847 10.7878 21.5312 10.7467 21.4727 10.7543C21.4143 10.7619 21.3731 10.8154 21.3808 10.8739C21.3808 11.3266 24.1606 11.3626 25.0131 11.3626C25.8655 11.3625 28.6495 11.3265 28.6495 10.8739H28.6495Z" fill="white"/>
</svg>
