<svg width="50" height="50" viewBox="0 0 50 50" fill="none" xmlns="http://www.w3.org/2000/svg">
<circle cx="25" cy="25" r="25" fill="#3E14B4"/>
<path d="M16.4921 37.004H14.8721V35.006H16.4921V37.004ZM17.6621 34.07H13.7111V37.94H17.6621V34.07ZM14.4581 39.713H18.8051V41.783H19.9931V38.768H14.4581V39.713ZM21.0911 35.456H19.9931V33.485H18.8051V38.399H19.9931V36.428H21.0911V35.456ZM27.4894 37.625H28.6774V33.476H27.4894V35.24H26.0404V36.185H27.4894V37.625ZM22.3234 33.791V34.736H24.6724C24.5194 35.717 23.6554 36.509 21.8464 36.914L22.2424 37.841C24.6724 37.265 25.9504 35.951 25.9504 33.791H22.3234ZM24.4114 40.757V40.235H28.6774V37.94H23.2144V38.876H27.4894V39.353H23.2234V41.693H28.8484V40.757H24.4114ZM31.6826 37.391H34.3736V34.187H30.4586V35.132H33.1586V36.455H30.4676V39.866H31.2146C32.7176 39.866 33.9326 39.812 35.2826 39.578L35.1566 38.615C33.9866 38.813 32.9426 38.876 31.6826 38.885V37.391ZM35.7326 33.476V41.792H36.9206V33.476H35.7326Z" fill="white"/>
<path d="M24.999 13C19.3917 13 15 14.9918 15 17.5372C15.0178 18.2053 15.2921 18.8424 15.7682 19.3208C16.563 22.8553 18.3138 26.0104 19.496 26.9151C20.5187 27.7201 21.9598 28 24.9989 28C28.038 28 29.4792 27.7201 30.5018 26.9281C31.684 26.0124 33.4327 22.8578 34.2296 19.3206C34.7071 18.8419 34.9823 18.2041 35 17.5349C34.9978 14.994 30.6059 13 24.9987 13L24.999 13ZM24.999 27.566C21.9242 27.566 20.6626 27.2774 19.7704 26.5873C18.4068 25.5329 16.8661 22.0656 16.2285 19.3553C17.7694 20.8569 21.1207 21.9006 24.9993 21.9006C28.8779 21.9006 32.2288 20.8568 33.7677 19.3554C33.1301 22.0655 31.5894 25.5328 30.2258 26.5875C29.3359 27.2773 28.0742 27.566 24.9996 27.566L24.999 27.566ZM15.5534 17.5089C15.5534 16.7192 16.0516 15.9901 16.917 15.35C18.6105 14.2 21.5965 13.434 25.0012 13.434C28.4058 13.434 31.3899 14.1999 33.0834 15.3499C33.9467 15.979 34.447 16.719 34.447 17.5088C34.447 19.8109 30.2102 21.6857 25.0014 21.6857C19.7926 21.6857 15.5535 19.811 15.5535 17.5088L15.5534 17.5089Z" fill="white"/>
<path d="M24.9992 21.1544C29.9246 21.1544 33.9337 19.4034 33.9337 17.2488C33.9337 17.1888 33.8841 17.1404 33.8229 17.1404C33.7618 17.1404 33.7122 17.1888 33.7122 17.2488C33.7122 19.2819 29.803 20.9374 24.9995 20.9374C20.1961 20.9374 16.2869 19.2819 16.2869 17.2488C16.2869 17.1888 16.2373 17.1404 16.1761 17.1404C16.115 17.1404 16.0654 17.1888 16.0654 17.2488C16.0654 19.4034 20.0741 21.1544 24.9999 21.1544H24.9992Z" fill="white"/>
</svg>
