<svg width="50" height="50" viewBox="0 0 50 50" fill="none" xmlns="http://www.w3.org/2000/svg">
<circle cx="25" cy="25" r="25" fill="#3E14B4"/>
<path d="M24.8617 37.265C22.9717 36.959 21.9547 35.717 21.9547 34.538V33.944H20.6857V34.538C20.6857 35.69 19.6597 36.959 17.7877 37.265L18.2737 38.246C19.7227 37.985 20.7757 37.202 21.3157 36.185C21.8557 37.211 22.9177 37.985 24.3757 38.246L24.8617 37.265ZM21.9187 39.839V37.985H20.7307V39.839H17.6077V40.793H25.1137V39.839H21.9187ZM26.679 37.589C28.128 37.391 29.145 36.77 29.64 35.924C30.135 36.77 31.152 37.391 32.601 37.589L33.024 36.662C31.341 36.455 30.468 35.645 30.351 34.853H32.7V33.908H26.553V34.853H28.938C28.821 35.645 27.939 36.455 26.247 36.662L26.679 37.589ZM33.384 38.066H25.896V39.011H29.019V41.792H30.207V39.011H33.384V38.066Z" fill="white"/>
<path d="M24.9952 10.002C23.1902 9.97893 21.3896 10.1719 19.6383 10.5763C17.8872 11.0271 17 11.6758 17 12.5064V12.5404L17.6093 22.5399H17.6095C17.6259 22.9006 17.7926 23.2413 18.0747 23.4912L18.3325 26.3816C18.3494 26.848 18.7644 27.237 20.6191 27.6015H20.6193C22.0593 27.8718 23.5254 28.0054 24.9951 27.9998C26.468 28.006 27.9377 27.8725 29.3809 27.6015C31.2389 27.237 31.6509 26.848 31.6675 26.3816L31.9253 23.4912H31.9255C32.2076 23.2413 32.3744 22.9005 32.3907 22.5399L33 12.5404V12.5064C33 11.6758 32.1128 11.0271 30.3617 10.5763H30.362C28.6074 10.1713 26.8033 9.97805 24.995 10.002H24.9952ZM21.1986 24.2941L21.2287 27.0733C19.866 26.8478 18.9923 26.5391 18.9923 26.3413L18.7446 23.5436C19.5162 23.9079 20.3438 24.1609 21.1986 24.2941H21.1986ZM21.5335 24.3496C21.7679 24.3867 22.0122 24.4207 22.2567 24.4485V27.2277C22.0157 27.2 21.7813 27.1692 21.5604 27.1381L21.5335 24.3496ZM22.5914 24.4856C24.1869 24.6471 25.7969 24.6471 27.3924 24.4856V27.2648C25.7967 27.4227 24.1872 27.4227 22.5914 27.2648V24.4856ZM28.4503 24.3496L28.4235 27.1289C28.2026 27.1629 27.9681 27.1907 27.7271 27.2185V24.4393C27.9782 24.4145 28.2194 24.3837 28.4536 24.3466L28.4503 24.3496ZM28.7617 27.0733L28.7918 24.2941C29.647 24.1651 30.4756 23.9163 31.2493 23.5561L31.0015 26.3539C30.998 26.5516 30.1243 26.8573 28.7616 27.0733H28.7617ZM31.7213 22.5122C31.7056 22.7306 31.5961 22.9342 31.4165 23.0774C30.526 23.7383 28.1724 24.2941 24.9949 24.2941C21.8175 24.2941 19.4641 23.7383 18.5734 23.0866C18.3926 22.9438 18.2817 22.7403 18.2653 22.5214L17.6558 12.5064C17.6558 11.4658 20.9403 10.6196 24.9945 10.6196C29.0487 10.6196 32.3332 11.4658 32.3332 12.5064L31.7213 22.5122Z" fill="white"/>
<path d="M32.0924 12.448C31.9977 12.448 31.921 12.52 31.921 12.6085C31.921 12.9493 29.6104 13.5728 25.1879 13.5728C20.7654 13.5728 18.4548 12.9301 18.4548 12.6085C18.4548 12.52 18.378 12.448 18.2833 12.448C18.1886 12.448 18.1118 12.52 18.1118 12.6085C18.1118 13.5728 22.3425 13.8941 25.1884 13.8941C28.0342 13.8941 32.2649 13.547 32.2649 12.6085C32.2649 12.5659 32.2468 12.5251 32.2147 12.4951C32.1824 12.4648 32.1389 12.448 32.0935 12.448L32.0924 12.448Z" fill="white"/>
</svg>
