<svg width="16" height="16" viewBox="0 0 16 16" fill="none" xmlns="http://www.w3.org/2000/svg">
<circle cx="8" cy="8" r="8" fill="#E6E6E6"/>
<path d="M11.9058 4.65626L11.9765 4.58555L11.9058 4.51485L11.3202 3.92929L11.2495 3.85858L11.1788 3.92929L7.91753 7.19084L4.65627 3.92929L4.58556 3.85858L4.51485 3.92929L3.92929 4.51485L3.85858 4.58555L3.92929 4.65626L7.19055 7.91782L3.92929 11.1794L3.85858 11.2501L3.92929 11.3208L4.51485 11.9064L4.58556 11.9771L4.65627 11.9064L7.91753 8.64481L11.1788 11.9064L11.2495 11.9771L11.3202 11.9064L11.9058 11.3208L11.9765 11.2501L11.9058 11.1794L8.6445 7.91782L11.9058 4.65626Z" fill="#989898" stroke="#989898" stroke-width="0.2"/>
</svg>
