<svg width="66" height="66" viewBox="0 0 66 66" fill="none" xmlns="http://www.w3.org/2000/svg">
<circle cx="33" cy="33" r="33" fill="black"/>
<path d="M32.5 19.3C31.3167 19.3 30.3577 20.259 30.3577 21.4423V30.3577H21.4423C20.259 30.3577 19.3 31.3167 19.3 32.5C19.3 33.6833 20.259 34.6423 21.4423 34.6423H30.3577V43.5577C30.3577 44.741 31.3167 45.7 32.5 45.7C33.6833 45.7 34.6423 44.741 34.6423 43.5577V34.6423H43.5577C44.741 34.6423 45.7 33.6833 45.7 32.5C45.7 31.3167 44.741 30.3577 43.5577 30.3577H34.6423V21.4423C34.6423 20.259 33.6833 19.3 32.5 19.3Z" fill="#FBB03B" stroke="#FBB03B" stroke-width="1.4"/>
</svg>
