<svg width="25" height="18" viewBox="0 0 25 18" fill="none" xmlns="http://www.w3.org/2000/svg">
<path d="M10.5 18H9C9 16.5 10.5 10.5 16.5 10.5C22.5 10.5 24.1875 16.5 24.1875 18H22.5H10.5ZM16.5 9C17.6935 9 18.8381 8.52589 19.682 7.68198C20.5259 6.83807 21 5.69347 21 4.5C21 3.30653 20.5259 2.16193 19.682 1.31802C18.8381 0.474106 17.6935 0 16.5 0C15.3065 0 14.1619 0.474106 13.318 1.31802C12.4741 2.16193 12 3.30653 12 4.5C12 5.69347 12.4741 6.83807 13.318 7.68198C14.1619 8.52589 15.3065 9 16.5 9Z" fill="#3E14B4"/>
<path fill-rule="evenodd" clip-rule="evenodd" d="M6.75 17.9999C6.75 17.4377 7.05602 15.6006 7.5 14.6252C7.875 13.8013 9 11.8127 10.404 10.9199C9.46364 10.6302 8.48392 10.4885 7.5 10.4999C1.5 10.4999 0 16.5002 0 18.0002L1.5 17.9999H6.75Z" fill="#3E14B4"/>
<path d="M6.75 9.00024C7.74456 9.00024 8.69839 8.60516 9.40165 7.90189C10.1049 7.19863 10.5 6.24481 10.5 5.25024C10.5 4.25568 10.1049 3.30185 9.40165 2.59859C8.69839 1.89533 7.74456 1.50024 6.75 1.50024C5.75544 1.50024 4.80161 1.89533 4.09835 2.59859C3.39509 3.30185 3 4.25568 3 5.25024C3 6.24481 3.39509 7.19863 4.09835 7.90189C4.80161 8.60516 5.75544 9.00024 6.75 9.00024Z" fill="#3E14B4"/>
</svg>
