<svg width="38" height="38" viewBox="0 0 38 38" fill="none" xmlns="http://www.w3.org/2000/svg">
<path d="M14.3475 17.2601H10V28H14.3475V17.2601ZM14.3475 17.2601L19.9945 10.7502C20.5304 10.1324 21.3734 9.86688 22.1722 10.0642L22.2239 10.077C23.6822 10.4372 24.3391 12.1164 23.5054 13.3523L20.8688 17.2601H25.8255C27.1972 17.2601 28.2261 18.5002 27.9571 19.8293L26.6528 26.2732C26.4495 27.2773 25.5574 28 24.5212 28H14.3475" fill="black"/>
<path d="M14.3475 17.2601H10V28H14.3475M14.3475 17.2601V28M14.3475 17.2601L19.9945 10.7502C20.5304 10.1324 21.3734 9.86688 22.1722 10.0642L22.2239 10.077C23.6822 10.4372 24.3391 12.1164 23.5054 13.3523L20.8688 17.2601H25.8255C27.1972 17.2601 28.2261 18.5002 27.9571 19.8293L26.6528 26.2732C26.4495 27.2773 25.5574 28 24.5212 28H14.3475" stroke="black" stroke-linecap="round" stroke-linejoin="round"/>
</svg>
