<svg width="16" height="22" viewBox="0 0 16 22" fill="none" xmlns="http://www.w3.org/2000/svg">
<path d="M2.43037 20.7695L2.40927 20.9381H2.57921H4.29646H4.42826L4.44522 20.8074L5.24323 14.6571H9.24919L8.48442 20.7695L8.46333 20.9381H8.63326H10.3796H10.512L10.5285 20.8067L11.2979 14.6571H14.1634H14.3134V14.5071V12.744V12.594H14.1634H11.5697L12.1408 8.32101H14.8037H14.9537V8.17101V6.43547V6.28547H14.8037H12.3839L13.0897 0.807255L13.1115 0.638086H12.941H11.2528H11.1222L11.1042 0.767412L10.3364 6.28547H6.32982L7.03567 0.807255L7.05747 0.638086H6.8869H5.16965H5.03841L5.02097 0.768164L4.28165 6.28547H1.44407H1.29407V6.43547V8.17101V8.32101H1.44407H4.03776L3.46663 12.594H0.803741H0.653741V12.744V14.5071V14.6571H0.803741H3.19513L2.43037 20.7695ZM9.52069 12.594H5.51459L6.05852 8.32101H10.0918L9.52069 12.594Z" fill="black" stroke="black" stroke-width="0.3"/>
</svg>
