<svg width="38" height="38" viewBox="0 0 38 38" fill="none" xmlns="http://www.w3.org/2000/svg">
<path d="M14.4144 10.1326L14.4142 10.1327C13.4567 10.539 12.5966 11.1184 11.859 11.8567C11.1219 12.5944 10.5405 13.4541 10.1342 14.4126L10.1341 14.4128C9.71405 15.4047 9.5 16.458 9.5 17.5412C9.5 21.9775 13.1076 25.5844 17.5406 25.5844C19.2482 25.5844 20.9025 25.0395 22.2737 24.0385L26.368 28.1343C26.6035 28.3699 26.9186 28.5 27.2501 28.5C27.5786 28.5 27.8959 28.372 28.1316 28.1349C28.6232 27.6492 28.6209 26.8591 28.1359 26.3739L27.9895 26.2274H27.989L24.0375 22.2778C25.0382 20.9059 25.5829 19.2498 25.5829 17.5432C25.5829 13.1069 21.9752 9.5 17.5423 9.5C16.4596 9.5 15.4066 9.71223 14.4144 10.1326ZM23.0902 17.5415C23.0902 20.6023 20.6004 23.0913 17.5426 23.0913C14.4849 23.0913 11.995 20.6007 11.995 17.5415C11.995 14.4823 14.4849 11.9918 17.5426 11.9918C20.6003 11.9918 23.0902 14.4823 23.0902 17.5415Z" fill="black" stroke="black"/>
</svg>
