<svg width="21" height="21" viewBox="0 0 21 21" fill="none" xmlns="http://www.w3.org/2000/svg">
<path d="M0.499992 11.8332V9.69552C0.499992 9.43422 0.690491 9.19661 0.952419 9.12539L2.8333 8.65037C3.0238 8.60282 3.16663 8.46032 3.23805 8.27028C3.33321 7.96144 3.4523 7.67645 3.59513 7.39145C3.69029 7.20141 3.66654 6.98767 3.57137 6.82133L2.59513 5.18231C2.4523 4.94471 2.49997 4.65974 2.6903 4.44601L4.21412 2.9258C4.40462 2.73575 4.71421 2.6882 4.95218 2.83085L6.59509 3.80478C6.76184 3.89972 6.97609 3.92358 7.16657 3.82847C7.45224 3.68598 7.73805 3.56718 8.04749 3.47224C8.23799 3.401 8.38081 3.2585 8.42848 3.06846L8.90463 1.19204C8.9048 0.978129 9.1428 0.788086 9.42861 0.788086H11.5714C11.8333 0.788086 12.0715 0.978133 12.1429 1.23944L12.619 3.11586C12.6667 3.30591 12.8095 3.4484 13 3.51965C13.3096 3.61459 13.5953 3.73339 13.8809 3.87588C14.0714 3.97082 14.2857 3.94713 14.4524 3.85219L16.0953 2.87826C16.3335 2.73577 16.6191 2.78332 16.8334 2.9732L18.3572 4.49341C18.5477 4.68346 18.5954 4.99231 18.4524 5.22972L17.4761 6.86874C17.381 7.03509 17.3571 7.24883 17.4524 7.43886C17.5952 7.72385 17.7143 8.00898 17.8095 8.31769C17.8809 8.50773 18.0237 8.65022 18.2142 8.69778L20.0951 9.1728C20.3095 9.17297 20.5 9.4104 20.5 9.69554V11.8333C20.5 12.0945 20.3095 12.3322 20.0476 12.4034L18.1667 12.8784C17.9762 12.9259 17.8334 13.0684 17.7619 13.2585C17.6668 13.5673 17.5477 13.8523 17.4049 14.1373C17.3097 14.3274 17.3335 14.5411 17.4286 14.7074L18.4049 16.3465C18.5477 16.5841 18.5 16.869 18.3097 17.0828L16.7859 18.603C16.5954 18.793 16.2858 18.8406 16.0478 18.6979L14.4049 17.724C14.2382 17.629 14.0239 17.6052 13.8334 17.7003C13.5478 17.8428 13.2619 17.9616 12.9525 18.0565C12.762 18.1278 12.6192 18.2703 12.5715 18.4603L12.0954 20.3367C12.0239 20.598 11.7858 20.7881 11.5239 20.7881H9.3811C9.11918 20.7881 8.88101 20.598 8.80962 20.3367L8.33347 18.4603C8.2858 18.2703 8.14297 18.1278 7.95248 18.0565C7.6429 17.9616 7.35723 17.8428 7.07156 17.7003C6.88106 17.6053 6.66682 17.629 6.50008 17.724L4.85717 18.6979C4.61901 18.8404 4.33336 18.7929 4.11911 18.603L2.59529 17.0828C2.40479 16.8927 2.35713 16.5839 2.50012 16.3465L3.47637 14.7074C3.57153 14.5411 3.59545 14.3273 3.50011 14.1373C3.35728 13.8523 3.2382 13.5672 3.14304 13.2585C3.07162 13.0684 2.92879 12.9259 2.73829 12.8784L0.857412 12.4034C0.690498 12.3558 0.499992 12.1184 0.499992 11.8332ZM10.5001 15.3725C13.0478 15.3725 15.1192 13.306 15.1192 10.7644C15.1192 8.22273 13.0478 6.15624 10.5001 6.15624C7.95239 6.15624 5.88099 8.22273 5.88099 10.7644C5.88099 13.306 7.95239 15.3725 10.5001 15.3725Z" fill="black"/>
</svg>
