<svg width="19" height="19" viewBox="0 0 19 19" fill="none" xmlns="http://www.w3.org/2000/svg">
<path d="M18.796 7.81972C18.8847 7.731 18.8753 7.64427 18.8601 7.58003C18.8356 7.51594 18.7884 7.43657 18.6677 7.41209L13.388 6.65173C12.7955 6.56301 12.2766 6.18751 12.003 5.64418L9.65002 0.868605C9.53867 0.644059 9.32926 0.644059 9.21792 0.868605L6.86693 5.64418C6.59526 6.18765 6.07442 6.565 5.4819 6.65173L0.202244 7.41222C0.0814172 7.4367 0.0342949 7.51594 0.00981553 7.58017C-0.00532089 7.64427 -0.0146659 7.73298 0.0739133 7.81985L3.88919 11.5408C4.32129 11.9654 4.52137 12.573 4.41752 13.1654L3.51369 18.4225C3.49855 18.5433 3.55331 18.6149 3.60991 18.6545C3.6665 18.6941 3.75337 18.7262 3.85709 18.6696L8.57808 16.1902C8.84974 16.0543 9.13853 15.9826 9.43481 15.9826C9.73108 15.9826 10.0197 16.0543 10.2915 16.1902L15.0125 18.6696C15.1162 18.7262 15.205 18.6941 15.2597 18.6545C15.3163 18.6149 15.3711 18.5431 15.3559 18.4225L14.4521 13.1654C14.3484 12.5728 14.5483 11.9653 14.9804 11.5408L18.796 7.81972Z" fill="#3E14B4"/>
</svg>
